<svg width="67" height="67" viewBox="0 0 67 67" fill="none" xmlns="http://www.w3.org/2000/svg">
<path d="M66.4286 33.2143C66.4286 51.558 51.558 66.4286 33.2143 66.4286C14.8705 66.4286 0 51.558 0 33.2143C0 14.8705 14.8705 0 33.2143 0C51.558 0 66.4286 14.8705 66.4286 33.2143Z" fill="#846ABC"/>
<path d="M46.2245 53C44.814 53 43.2222 52.3252 41.449 50.9755C39.6759 49.6258 37.6206 47.4581 35.2832 44.4724C32.9862 41.4867 30.3264 37.5603 27.304 32.6933L40.6028 16.7423L36.4922 15.9448C36.4922 14.6769 36.8751 13.6953 37.6408 13H50.3351C50.3351 14.7178 49.8716 15.6789 48.9447 15.8834L45.1969 16.9264L33.1071 31.3436C34.3564 33.1432 35.7467 35.0041 37.2781 36.9264C38.8094 38.8078 40.3811 40.6687 41.9931 42.5092C43.6051 44.3088 45.1767 45.9448 46.7081 47.4172C48.2395 48.8896 49.6701 50.0757 51 50.9755C50.3149 51.589 49.5694 52.0798 48.7634 52.4479C47.9977 52.816 47.1514 53 46.2245 53ZM16 52.3252C16 50.6892 16.3224 49.7689 16.9672 49.5644L20.1105 48.5828V16.9264L16 15.9448C16 15.3313 16.0806 14.7996 16.2418 14.3497C16.403 13.8998 16.7254 13.4499 17.209 13H31.0518C31.0518 14.6769 30.7294 15.5971 30.0846 15.7607L26.8204 16.681V48.4601L31.0518 49.3804C31.0518 49.9939 30.9712 50.5256 30.81 50.9755C30.6891 51.4254 30.407 51.8753 29.9637 52.3252H16Z" fill="white"/>
</svg>
