<svg width="16" height="12" viewBox="0 0 16 12" fill="none" xmlns="http://www.w3.org/2000/svg">
<path d="M2.68829 5.99746L7.78256 10.4868C7.92283 10.6101 8 10.775 8 10.9508C8 11.1267 7.92283 11.2915 7.78256 11.415L7.33618 11.8082C7.19613 11.9319 7.00891 12 6.80941 12C6.60991 12 6.42292 11.9319 6.28276 11.8082L0.217219 6.46322C0.0765045 6.33932 -0.00055059 6.17376 2.9661e-06 5.99776C-0.00055059 5.82098 0.0763937 5.65561 0.217219 5.53161L6.27711 0.191806C6.41727 0.0680981 6.60426 0 6.80388 0C7.00338 0 7.19037 0.0680981 7.33064 0.191806L7.77692 0.584976C8.06731 0.840878 8.06731 1.25746 7.77692 1.51327L2.68829 5.99746Z" fill="#6C71D1"/>
<path d="M10.6883 5.99746L15.7826 10.4868C15.9228 10.6101 16 10.775 16 10.9508C16 11.1267 15.9228 11.2915 15.7826 11.415L15.3362 11.8082C15.1961 11.9319 15.0089 12 14.8094 12C14.6099 12 14.4229 11.9319 14.2828 11.8082L8.21722 6.46322C8.0765 6.33932 7.99945 6.17376 8 5.99776C7.99945 5.82098 8.07639 5.65561 8.21722 5.53161L14.2771 0.191806C14.4173 0.0680981 14.6043 0 14.8039 0C15.0034 0 15.1904 0.0680981 15.3306 0.191806L15.7769 0.584976C16.0673 0.840878 16.0673 1.25746 15.7769 1.51327L10.6883 5.99746Z" fill="#6C71D1"/>
</svg>
