<svg width="136" height="107" viewBox="0 0 136 107" fill="none" xmlns="http://www.w3.org/2000/svg">
<path d="M0 9.6905C0.211047 8.98702 0.38692 8.24836 0.633142 7.54487C2.216 3.07775 6.2259 0.0879356 11.2207 0.0527614C21.9841 -0.0175871 32.7475 -0.0175871 43.5109 0.0527614C47.8726 0.0879356 51.4604 1.98734 54.2392 5.36407C55.8924 7.369 57.5456 9.33876 59.1285 11.414C60.5706 13.3134 62.4349 14.1225 64.8267 14.1225C78.6855 14.0873 92.5091 14.0873 106.368 14.1225C112.031 14.1225 116.393 17.2178 117.694 22.3181C118.151 24.1471 118.151 26.1169 118.362 28.157C117.553 28.157 117.026 28.157 116.498 28.157C93.494 28.157 70.525 28.157 47.5208 28.157C38.2348 28.157 31.5868 33.1869 28.9838 42.1211C23.8835 59.6379 18.748 77.1547 13.6477 94.6715C12.4518 98.7165 9.70818 101.108 6.05003 101.249C3.41193 101.39 1.40698 100.123 0.351746 97.6964C0.246222 97.4502 0.105524 97.2392 0 97.0281C0 67.9039 0 38.8148 0 9.6905Z" fill="white"/>
<path d="M7.98438 106.842C8.51199 106.701 9.07479 106.525 9.6024 106.349C14.4565 104.767 17.5167 101.46 18.9588 96.6061C22.2301 85.3855 25.5013 74.2001 28.7725 62.9795C30.7071 56.3668 32.6418 49.754 34.5764 43.1413C36.2999 37.3023 40.8726 33.7849 46.9578 33.7849C73.3739 33.7498 99.79 33.7498 126.206 33.7849C132.467 33.7849 136.336 38.9555 134.613 45.0055C129.618 62.3464 124.553 79.6521 119.488 96.9578C117.659 103.219 112.418 106.983 105.77 106.983C93.1068 107.018 80.444 106.983 67.7811 106.983C47.8723 106.983 27.9635 106.983 8.05472 106.983C7.98437 106.947 7.98438 106.877 7.98438 106.842Z" fill="white"/>
</svg>
