<svg width="22" height="22" viewBox="0 0 22 22" fill="none" xmlns="http://www.w3.org/2000/svg">
<path fill-rule="evenodd" clip-rule="evenodd" d="M18.8198 4.15276C19.0883 3.88428 19.0883 3.44898 18.8198 3.18049C18.5513 2.912 18.116 2.912 17.8475 3.18049L3.18086 17.8472C2.91237 18.1156 2.91237 18.5509 3.18086 18.8194C3.44934 19.0879 3.88464 19.0879 4.15313 18.8194L6.93523 16.0373C8.14323 16.5946 9.52619 16.9583 11.0003 16.9583C13.3999 16.9583 15.558 15.9945 17.113 14.801C17.8915 14.2035 18.5303 13.5399 18.9785 12.8941C19.4182 12.2606 19.7087 11.5944 19.7087 11C19.7087 10.4055 19.4182 9.73937 18.9785 9.10583C18.5303 8.45999 17.8915 7.79638 17.113 7.19887C16.865 7.00849 16.6016 6.82396 16.3243 6.64825L18.8198 4.15276ZM13.8683 9.10425L12.8618 10.1107C12.9907 10.38 13.0628 10.6815 13.0628 11C13.0628 12.139 12.1394 13.0625 11.0003 13.0625C10.6819 13.0625 10.3804 12.9903 10.1111 12.8615L9.10462 13.8679C9.64804 14.2279 10.2997 14.4375 11.0003 14.4375C12.8988 14.4375 14.4378 12.8984 14.4378 11C14.4378 10.2993 14.2282 9.64768 13.8683 9.10425Z" fill="#49525A"/>
<path d="M11.6025 7.61503C11.6864 7.62984 11.7729 7.60508 11.8331 7.54488L13.588 5.79002C13.7204 5.65767 13.6654 5.43282 13.485 5.38314C12.6995 5.16694 11.8656 5.04163 11.0003 5.04163C8.6007 5.04163 6.44267 6.0054 4.88764 7.19887C4.10911 7.79638 3.47031 8.45999 3.02211 9.10583C2.58245 9.73937 2.29199 10.4055 2.29199 11C2.29199 11.5944 2.58245 12.2606 3.02211 12.8941C3.40173 13.4411 3.91809 14.0009 4.54028 14.5224C4.63798 14.6043 4.78179 14.5962 4.87193 14.5061L7.54525 11.8328C7.60545 11.7726 7.63021 11.686 7.6154 11.6022C7.58085 11.4066 7.56283 11.2054 7.56283 11C7.56283 9.10148 9.10185 7.56246 11.0003 7.56246C11.2058 7.56246 11.407 7.58048 11.6025 7.61503Z" fill="#49525A"/>
</svg>
