<svg width="22" height="22" viewBox="0 0 22 22" fill="none" xmlns="http://www.w3.org/2000/svg">
<path d="M11.0003 8.93746C9.86124 8.93746 8.93783 9.86087 8.93783 11C8.93783 12.139 9.86124 13.0625 11.0003 13.0625C12.1394 13.0625 13.0628 12.139 13.0628 11C13.0628 9.86087 12.1394 8.93746 11.0003 8.93746Z" fill="#49525A"/>
<path fill-rule="evenodd" clip-rule="evenodd" d="M11.0003 5.04163C8.6007 5.04163 6.44267 6.0054 4.88764 7.19887C4.10911 7.79638 3.47031 8.45999 3.02211 9.10583C2.58245 9.73937 2.29199 10.4055 2.29199 11C2.29199 11.5944 2.58245 12.2606 3.02211 12.8941C3.47031 13.5399 4.10911 14.2035 4.88764 14.801C6.44267 15.9945 8.6007 16.9583 11.0003 16.9583C13.4 16.9583 15.558 15.9945 17.113 14.801C17.8915 14.2035 18.5303 13.5399 18.9785 12.8941C19.4182 12.2606 19.7087 11.5944 19.7087 11C19.7087 10.4055 19.4182 9.73937 18.9785 9.10583C18.5303 8.45999 17.8915 7.79638 17.113 7.19887C15.558 6.0054 13.4 5.04163 11.0003 5.04163ZM7.56283 11C7.56283 9.10148 9.10185 7.56246 11.0003 7.56246C12.8988 7.56246 14.4378 9.10148 14.4378 11C14.4378 12.8984 12.8988 14.4375 11.0003 14.4375C9.10185 14.4375 7.56283 12.8984 7.56283 11Z" fill="#49525A"/>
</svg>
