<svg width="65" height="21" viewBox="0 0 65 21" fill="none" xmlns="http://www.w3.org/2000/svg">
<path d="M7.99027 0H8.5672C10.5701 0.0423889 12.5404 0.826583 13.9555 2.21482C13.433 2.73408 12.8996 3.23215 12.388 3.75142C11.5934 3.052 10.6354 2.51154 9.59044 2.32079C8.0447 2.00287 6.37922 2.289 5.08384 3.14737C3.66873 4.04814 2.71081 5.57414 2.50398 7.20611C2.27539 8.81688 2.74346 10.5124 3.82113 11.7629C4.85525 12.9816 6.43364 13.7446 8.06647 13.7976C9.59044 13.8824 11.1797 13.4267 12.29 12.3881C13.1609 11.6569 13.5636 10.5442 13.6943 9.46332C11.8873 9.46332 10.0803 9.47391 8.27329 9.46332V7.28029H15.8823C16.2741 9.62227 15.7081 12.261 13.8793 13.9353C12.6601 15.1222 10.9729 15.8216 9.25299 15.9594C7.58751 16.1184 5.8676 15.811 4.38717 15.0269C2.61284 14.1049 1.19772 12.5471 0.50105 10.7138C-0.15208 9.02883 -0.162966 7.12133 0.446622 5.42578C1.00178 3.87858 2.06856 2.51154 3.44013 1.55779C4.75728 0.614639 6.35745 0.0953749 7.99027 0Z" fill="#4285F4"/>
<path d="M51 0H54V15.9972C53.0047 15.9972 51.9953 16.0084 51 15.986C51.014 10.6648 51 5.3324 51 0Z" fill="#34A853"/>
<path d="M21.0256 6.09128C22.3806 5.83404 23.8485 6.12214 24.9673 6.93502C25.9836 7.65528 26.6919 8.78713 26.9074 10.0219C27.1846 11.4521 26.8356 13.0161 25.9117 14.148C24.916 15.4136 23.2839 16.0927 21.6928 15.9898C20.2352 15.9075 18.8186 15.1769 17.9564 13.9833C16.9812 12.6663 16.7451 10.8553 17.2789 9.31189C17.8126 7.65528 19.3216 6.38967 21.0256 6.09128ZM21.3335 8.04628C20.7792 8.19034 20.266 8.50931 19.8964 8.96205C18.9007 10.1556 18.9623 12.1004 20.0607 13.2116C20.6868 13.8496 21.6312 14.148 22.5037 13.973C23.3147 13.829 24.023 13.2836 24.413 12.5634C25.0905 11.3389 24.8955 9.65145 23.8587 8.69452C23.1915 8.07715 22.2163 7.81991 21.3335 8.04628Z" fill="#EB4335"/>
<path d="M32.4279 6.09207C34.1342 5.79355 35.9987 6.22589 37.2755 7.31705C39.3547 9.01554 39.5807 12.1964 37.8066 14.1522C36.7332 15.3875 34.993 16.0669 33.2754 15.9948C31.6369 15.9536 30.021 15.2125 29.0492 13.9875C27.9531 12.639 27.7158 10.7861 28.3373 9.21112C28.9588 7.60527 30.586 6.3803 32.4279 6.09207ZM32.7669 8.04791C32.1567 8.19203 31.5917 8.51114 31.1849 8.95377C30.1001 10.1273 30.1453 12.0419 31.3092 13.164C31.9985 13.8331 33.072 14.1625 34.0664 13.9772C34.9478 13.8228 35.7388 13.2875 36.1682 12.5669C36.9027 11.3317 36.688 9.64347 35.5354 8.68613C34.8009 8.0685 33.7274 7.82145 32.7669 8.04791Z" fill="#FBBC05"/>
<path d="M42.5165 6.71381C43.7513 5.94645 45.394 5.7333 46.7253 6.39407C47.144 6.57526 47.4876 6.88433 47.8205 7.1934C47.8312 6.90564 47.8205 6.60723 47.8312 6.30881C48.5505 6.31947 49.2699 6.30881 50 6.31947V15.7196C49.9893 17.1371 49.6242 18.6398 48.5935 19.6736C47.4661 20.814 45.7375 21.1657 44.1807 20.9312C42.5165 20.6861 41.0671 19.4818 40.4229 17.9577C41.0671 17.6486 41.7435 17.4035 42.4092 17.1157C42.785 17.9897 43.5473 18.7357 44.5028 18.9062C45.4584 19.0768 46.5643 18.8423 47.187 18.0536C47.8527 17.2436 47.8527 16.1352 47.8205 15.1441C47.3266 15.6237 46.7575 16.05 46.0704 16.2098C44.578 16.6255 42.9353 16.1139 41.7865 15.1121C40.6269 14.1103 39.9397 12.5649 40.0042 11.0302C40.0364 9.29297 41.0241 7.61971 42.5165 6.71381ZM44.739 8.07799C44.0841 8.18457 43.4721 8.54693 43.0534 9.04785C42.0441 10.2415 42.0441 12.1492 43.0641 13.3216C43.6439 14.0143 44.578 14.398 45.4799 14.3021C46.3281 14.2168 47.1118 13.684 47.5306 12.9486C48.2392 11.7016 48.1211 10.007 47.1655 8.91995C46.575 8.24852 45.6302 7.91813 44.739 8.07799Z" fill="#4285F4"/>
<path d="M56.691 7.22009C58.0294 6.06789 60.0927 5.67697 61.8102 6.28393C63.4386 6.84974 64.4758 8.2797 65 9.7508C62.5798 10.6767 60.1708 11.5923 57.7506 12.5181C58.0851 13.1045 58.5982 13.6395 59.2897 13.8555C60.26 14.1744 61.4199 14.0613 62.2341 13.4646C62.5575 13.2383 62.814 12.9399 63.0594 12.6519C63.6728 13.0325 64.2862 13.4029 64.8996 13.7835C64.0297 14.9871 62.5686 15.8307 60.9961 15.9644C59.2562 16.1599 57.4048 15.5426 56.2784 14.2876C54.427 12.3124 54.6054 8.99982 56.691 7.22009ZM57.8844 9.12327C57.5052 9.62736 57.349 10.2446 57.3602 10.8516C58.9774 10.2343 60.5946 9.61707 62.2118 8.98953C61.9441 8.41344 61.2972 8.06366 60.6392 7.97107C59.5796 7.79619 58.4755 8.32085 57.8844 9.12327Z" fill="#EB4335"/>
</svg>
