<svg width="110" height="34" viewBox="0 0 110 34" fill="none" xmlns="http://www.w3.org/2000/svg">
<path d="M38.1733 24.2626C37.4875 24.2626 36.9185 24.0584 36.4663 23.6498C36.0286 23.2413 35.8097 22.7015 35.8097 22.0304C35.8097 20.3818 36.8894 19.3094 39.0486 18.8134L41.6529 18.2225V16.9313C41.6529 16.1581 41.5289 15.6036 41.2809 15.2681C41.0474 14.9325 40.6827 14.7647 40.1866 14.7647C38.9319 14.7647 38.2973 15.538 38.2827 17.0845C38.093 17.2888 37.7939 17.3909 37.3854 17.3909C37.0644 17.3909 36.8091 17.3033 36.6195 17.1283C36.4444 16.9532 36.3568 16.7198 36.3568 16.428C36.3568 15.9465 36.5392 15.5161 36.904 15.1368C37.2687 14.7429 37.7647 14.4365 38.3921 14.2176C39.0195 13.9988 39.7343 13.8894 40.5368 13.8894C42.8711 13.8894 44.0383 15.0274 44.0383 17.3033V22.1179C44.0383 22.6286 44.2426 22.8839 44.6511 22.8839C44.8115 22.8839 44.9793 22.8547 45.1544 22.7964C45.3295 22.7234 45.4754 22.6432 45.5921 22.5556L45.7891 23.2997C45.4973 23.5915 45.1398 23.8249 44.7167 24C44.2936 24.1751 43.8997 24.2626 43.535 24.2626C42.9805 24.2626 42.5502 24.1094 42.2438 23.803C41.9374 23.4821 41.7842 23.0371 41.7842 22.4681H41.6748C41.2371 23.0371 40.7046 23.4821 40.0772 23.803C39.4644 24.1094 38.8298 24.2626 38.1733 24.2626ZM39.355 22.8839C39.7635 22.8839 40.172 22.7818 40.5805 22.5775C41.0036 22.3733 41.3684 22.096 41.6748 21.7459V19.0979L39.6614 19.5793C38.538 19.8274 37.9763 20.4401 37.9763 21.4176C37.9763 21.8699 38.1003 22.2274 38.3483 22.49C38.5964 22.7526 38.9319 22.8839 39.355 22.8839ZM47.0761 24C47.0761 23.4164 47.1929 23.0881 47.4263 23.0152L48.433 22.6213V15.5964L47.4263 15.3775C47.1929 15.3191 47.0761 14.9982 47.0761 14.4146C47.7327 14.3125 48.2287 14.2395 48.5643 14.1957C48.9144 14.152 49.2062 14.1301 49.4397 14.1301C49.8774 14.1301 50.191 14.2322 50.3807 14.4365C50.585 14.6407 50.6871 14.9763 50.6871 15.4432V16.0122H50.8403C51.453 15.3556 52.1315 14.8377 52.8755 14.4584C53.6196 14.079 54.3345 13.8894 55.0202 13.8894C56.7126 13.8894 57.5588 15.0419 57.5588 17.3471V22.5775L58.9157 22.9495C58.9157 23.1976 58.8865 23.4018 58.8281 23.5623C58.7843 23.7082 58.6895 23.8541 58.5436 24H54.0573C54.0573 23.4164 54.174 23.0881 54.4074 23.0152L55.1734 22.7307V17.566C55.1734 16.2091 54.6701 15.5307 53.6634 15.5307C53.109 15.5307 52.5764 15.6766 52.0658 15.9684C51.5552 16.2602 51.1467 16.5885 50.8403 16.9532V22.665L51.9783 22.9495C51.9783 23.3872 51.8397 23.7374 51.5625 24H47.0761ZM60.5402 24C60.5402 23.4164 60.657 23.0881 60.8904 23.0152L61.8971 22.6213V15.5964L60.8904 15.3775C60.657 15.3191 60.5402 14.9982 60.5402 14.4146C61.1968 14.3125 61.6928 14.2395 62.0284 14.1957C62.3785 14.152 62.6703 14.1301 62.9038 14.1301C63.3414 14.1301 63.6551 14.2322 63.8448 14.4365C64.049 14.6407 64.1512 14.9763 64.1512 15.4432V16.0122H64.3044C64.9171 15.3556 65.5956 14.8377 66.3396 14.4584C67.0837 14.079 67.7986 13.8894 68.4843 13.8894C70.1767 13.8894 71.0229 15.0419 71.0229 17.3471V22.5775L72.3797 22.9495C72.3797 23.1976 72.3506 23.4018 72.2922 23.5623C72.2484 23.7082 72.1536 23.8541 72.0077 24H67.5214C67.5214 23.4164 67.6381 23.0881 67.8715 23.0152L68.6375 22.7307V17.566C68.6375 16.2091 68.1342 15.5307 67.1275 15.5307C66.5731 15.5307 66.0405 15.6766 65.5299 15.9684C65.0193 16.2602 64.6108 16.5885 64.3044 16.9532V22.665L65.4424 22.9495C65.4424 23.3872 65.3038 23.7374 65.0266 24H60.5402ZM78.5563 24.2626C77.9435 24.2626 77.3016 24.1897 76.6305 24.0438C75.9739 23.8979 75.3612 23.6863 74.7922 23.4091V9.42493L73.7855 9.18419C73.5375 9.12584 73.4134 8.80486 73.4134 8.22128C74.0846 8.11915 74.5879 8.0462 74.9235 8.00243C75.259 7.95866 75.5508 7.93678 75.7989 7.93678C76.6305 7.93678 77.0463 8.3234 77.0463 9.09666V15.9903H77.1995C77.6226 15.3483 78.1697 14.8377 78.8408 14.4584C79.5265 14.079 80.2195 13.8894 80.9198 13.8894C81.9995 13.8894 82.8676 14.3125 83.5241 15.1587C84.1952 16.0049 84.5308 17.1356 84.5308 18.5508C84.5308 19.7033 84.29 20.71 83.8086 21.5708C83.3417 22.417 82.6633 23.0809 81.7733 23.5623C80.8834 24.0292 79.811 24.2626 78.5563 24.2626ZM79.0378 23.1903C80.0299 23.1903 80.7666 22.8474 81.2481 22.1617C81.7296 21.476 81.9703 20.4255 81.9703 19.0103C81.9703 17.7848 81.7879 16.8802 81.4232 16.2967C81.0584 15.6985 80.4967 15.3994 79.7381 15.3994C79.1837 15.3994 78.6949 15.5453 78.2718 15.8371C77.8633 16.1289 77.484 16.5009 77.1338 16.9532V22.5775C77.4402 22.7964 77.7466 22.9568 78.053 23.059C78.3739 23.1465 78.7022 23.1903 79.0378 23.1903ZM88.4819 24.2626C87.7962 24.2626 87.2272 24.0584 86.775 23.6498C86.3373 23.2413 86.1184 22.7015 86.1184 22.0304C86.1184 20.3818 87.1981 19.3094 89.3573 18.8134L91.9616 18.2225V16.9313C91.9616 16.1581 91.8376 15.6036 91.5895 15.2681C91.3561 14.9325 90.9914 14.7647 90.4953 14.7647C89.2406 14.7647 88.606 15.538 88.5914 17.0845C88.4017 17.2888 88.1026 17.3909 87.6941 17.3909C87.3731 17.3909 87.1178 17.3033 86.9281 17.1283C86.7531 16.9532 86.6655 16.7198 86.6655 16.428C86.6655 15.9465 86.8479 15.5161 87.2126 15.1368C87.5774 14.7429 88.0734 14.4365 88.7008 14.2176C89.3281 13.9988 90.043 13.8894 90.8455 13.8894C93.1798 13.8894 94.347 15.0274 94.347 17.3033V22.1179C94.347 22.6286 94.5512 22.8839 94.9598 22.8839C95.1202 22.8839 95.288 22.8547 95.4631 22.7964C95.6382 22.7234 95.7841 22.6432 95.9008 22.5556L96.0978 23.2997C95.806 23.5915 95.4485 23.8249 95.0254 24C94.6023 24.1751 94.2084 24.2626 93.8437 24.2626C93.2892 24.2626 92.8588 24.1094 92.5525 23.803C92.2461 23.4821 92.0929 23.0371 92.0929 22.4681H91.9835C91.5458 23.0371 91.0133 23.4821 90.3859 23.803C89.7731 24.1094 89.1385 24.2626 88.4819 24.2626ZM89.6637 22.8839C90.0722 22.8839 90.4807 22.7818 90.8892 22.5775C91.3123 22.3733 91.6771 22.096 91.9835 21.7459V19.0979L89.9701 19.5793C88.8467 19.8274 88.285 20.4401 88.285 21.4176C88.285 21.8699 88.409 22.2274 88.657 22.49C88.905 22.7526 89.2406 22.8839 89.6637 22.8839ZM97.3848 24C97.3848 23.4164 97.5016 23.0881 97.735 23.0152L98.7417 22.6213V15.5964L97.735 15.3775C97.5016 15.3191 97.3848 14.9982 97.3848 14.4146C98.0414 14.3125 98.5374 14.2395 98.873 14.1957C99.2231 14.152 99.5149 14.1301 99.7484 14.1301C100.186 14.1301 100.5 14.2322 100.689 14.4365C100.894 14.6407 100.996 14.9763 100.996 15.4432V16.0122H101.149C101.762 15.3556 102.44 14.8377 103.184 14.4584C103.928 14.079 104.643 13.8894 105.329 13.8894C107.021 13.8894 107.868 15.0419 107.868 17.3471V22.5775L109.224 22.9495C109.224 23.1976 109.195 23.4018 109.137 23.5623C109.093 23.7082 108.998 23.8541 108.852 24H104.366C104.366 23.4164 104.483 23.0881 104.716 23.0152L105.482 22.7307V17.566C105.482 16.2091 104.979 15.5307 103.972 15.5307C103.418 15.5307 102.885 15.6766 102.375 15.9684C101.864 16.2602 101.455 16.5885 101.149 16.9532V22.665L102.287 22.9495C102.287 23.3872 102.148 23.7374 101.871 24H97.3848Z" fill="#846ABC"/>
<path d="M34 17C34 26.3888 26.3888 34 17 34C7.61116 34 0 26.3888 0 17C0 7.61116 7.61116 0 17 0C26.3888 0 34 7.61116 34 17Z" fill="#846ABC"/>
<path d="M23.5184 24.2643C22.9212 24.2643 22.2473 23.9828 21.4966 23.4198C20.746 22.8568 19.8758 21.9526 18.8863 20.7071C17.9138 19.4617 16.7878 17.8238 15.5082 15.7936L21.1384 9.13981L19.3981 8.80712C19.3981 8.27823 19.5602 7.86877 19.8844 7.57874H25.2586C25.2586 8.29529 25.0624 8.69623 24.67 8.78153L23.0833 9.21658L17.965 15.2306C18.4939 15.9812 19.0825 16.7575 19.7308 17.5594C20.3791 18.3442 21.0445 19.1205 21.727 19.8882C22.4094 20.6389 23.0748 21.3213 23.7231 21.9355C24.3714 22.5497 24.9771 23.0445 25.5401 23.4198C25.25 23.6757 24.9344 23.8805 24.5932 24.034C24.269 24.1876 23.9108 24.2643 23.5184 24.2643ZM10.7227 23.9828C10.7227 23.3004 10.8591 22.9165 11.1321 22.8312L12.4629 22.4217V9.21658L10.7227 8.80712C10.7227 8.55121 10.7568 8.32942 10.825 8.14175C10.8933 7.95408 11.0298 7.76641 11.2345 7.57874H17.0949C17.0949 8.27823 16.9584 8.6621 16.6855 8.73035L15.3035 9.11422V22.3706L17.0949 22.7544C17.0949 23.0103 17.0608 23.2321 16.9925 23.4198C16.9414 23.6075 16.8219 23.7952 16.6343 23.9828H10.7227Z" fill="#26323E"/>
</svg>
