<svg width="173" height="132" viewBox="0 0 173 132" fill="none" xmlns="http://www.w3.org/2000/svg">
<circle cx="86.2143" cy="55.3571" r="33.2143" fill="#846ABC"/>
<path d="M98.95 69.55C97.7833 69.55 96.4667 69 95 67.9C93.5333 66.8 91.8333 65.0333 89.9 62.6C88 60.1667 85.8 56.9667 83.3 53L94.3 40L90.9 39.35C90.9 38.3167 91.2167 37.5167 91.85 36.95H102.35C102.35 38.35 101.967 39.1333 101.2 39.3L98.1 40.15L88.1 51.9C89.1333 53.3667 90.2833 54.8833 91.55 56.45C92.8167 57.9833 94.1167 59.5 95.45 61C96.7833 62.4667 98.0833 63.8 99.35 65C100.617 66.2 101.8 67.1667 102.9 67.9C102.333 68.4 101.717 68.8 101.05 69.1C100.417 69.4 99.7167 69.55 98.95 69.55ZM73.95 69C73.95 67.6667 74.2167 66.9167 74.75 66.75L77.35 65.95V40.15L73.95 39.35C73.95 38.85 74.0167 38.4167 74.15 38.05C74.2833 37.6833 74.55 37.3167 74.95 36.95H86.4C86.4 38.3167 86.1333 39.0667 85.6 39.2L82.9 39.95V65.85L86.4 66.6C86.4 67.1 86.3333 67.5333 86.2 67.9C86.1 68.2667 85.8667 68.6333 85.5 69H73.95Z" fill="#26323E"/>
<path d="M36.124 128.396C35.284 128.396 34.336 128 33.28 127.208C32.224 126.416 31 125.144 29.608 123.392C28.24 121.64 26.656 119.336 24.856 116.48L32.776 107.12L30.328 106.652C30.328 105.908 30.556 105.332 31.012 104.924H38.572C38.572 105.932 38.296 106.496 37.744 106.616L35.512 107.228L28.312 115.688C29.056 116.744 29.884 117.836 30.796 118.964C31.708 120.068 32.644 121.16 33.604 122.24C34.564 123.296 35.5 124.256 36.412 125.12C37.324 125.984 38.176 126.68 38.968 127.208C38.56 127.568 38.116 127.856 37.636 128.072C37.18 128.288 36.676 128.396 36.124 128.396ZM18.124 128C18.124 127.04 18.316 126.5 18.7 126.38L20.572 125.804V107.228L18.124 106.652C18.124 106.292 18.172 105.98 18.268 105.716C18.364 105.452 18.556 105.188 18.844 104.924H27.088C27.088 105.908 26.896 106.448 26.512 106.544L24.568 107.084V125.732L27.088 126.272C27.088 126.632 27.04 126.944 26.944 127.208C26.872 127.472 26.704 127.736 26.44 128H18.124ZM44.0013 128.432C42.8733 128.432 41.9373 128.096 41.1933 127.424C40.4733 126.752 40.1133 125.864 40.1133 124.76C40.1133 122.048 41.8893 120.284 45.4413 119.468L49.7253 118.496V116.372C49.7253 115.1 49.5213 114.188 49.1133 113.636C48.7293 113.084 48.1293 112.808 47.3133 112.808C45.2493 112.808 44.2053 114.08 44.1813 116.624C43.8693 116.96 43.3773 117.128 42.7053 117.128C42.1773 117.128 41.7573 116.984 41.4453 116.696C41.1573 116.408 41.0133 116.024 41.0133 115.544C41.0133 114.752 41.3133 114.044 41.9133 113.42C42.5133 112.772 43.3293 112.268 44.3613 111.908C45.3933 111.548 46.5693 111.368 47.8893 111.368C51.7293 111.368 53.6493 113.24 53.6493 116.984V124.904C53.6493 125.744 53.9853 126.164 54.6573 126.164C54.9213 126.164 55.1973 126.116 55.4853 126.02C55.7733 125.9 56.0133 125.768 56.2053 125.624L56.5293 126.848C56.0493 127.328 55.4613 127.712 54.7653 128C54.0693 128.288 53.4213 128.432 52.8213 128.432C51.9093 128.432 51.2013 128.18 50.6973 127.676C50.1933 127.148 49.9413 126.416 49.9413 125.48H49.7613C49.0413 126.416 48.1653 127.148 47.1333 127.676C46.1253 128.18 45.0813 128.432 44.0013 128.432ZM45.9453 126.164C46.6173 126.164 47.2893 125.996 47.9613 125.66C48.6573 125.324 49.2573 124.868 49.7613 124.292V119.936L46.4493 120.728C44.6013 121.136 43.6773 122.144 43.6773 123.752C43.6773 124.496 43.8813 125.084 44.2893 125.516C44.6973 125.948 45.2493 126.164 45.9453 126.164ZM58.6465 128C58.6465 127.04 58.8385 126.5 59.2225 126.38L60.8785 125.732V114.176L59.2225 113.816C58.8385 113.72 58.6465 113.192 58.6465 112.232C59.7265 112.064 60.5425 111.944 61.0945 111.872C61.6705 111.8 62.1505 111.764 62.5345 111.764C63.2545 111.764 63.7705 111.932 64.0825 112.268C64.4185 112.604 64.5865 113.156 64.5865 113.924V114.86H64.8385C65.8465 113.78 66.9625 112.928 68.1865 112.304C69.4105 111.68 70.5865 111.368 71.7145 111.368C74.4985 111.368 75.8905 113.264 75.8905 117.056V125.66L78.1225 126.272C78.1225 126.68 78.0745 127.016 77.9785 127.28C77.9065 127.52 77.7505 127.76 77.5105 128H70.1305C70.1305 127.04 70.3225 126.5 70.7065 126.38L71.9665 125.912V117.416C71.9665 115.184 71.1385 114.068 69.4825 114.068C68.5705 114.068 67.6945 114.308 66.8545 114.788C66.0145 115.268 65.3425 115.808 64.8385 116.408V125.804L66.7105 126.272C66.7105 126.992 66.4825 127.568 66.0265 128H58.6465ZM80.7949 128C80.7949 127.04 80.9869 126.5 81.3709 126.38L83.0269 125.732V114.176L81.3709 113.816C80.9869 113.72 80.7949 113.192 80.7949 112.232C81.8749 112.064 82.6909 111.944 83.2429 111.872C83.8189 111.8 84.2989 111.764 84.6829 111.764C85.4029 111.764 85.9189 111.932 86.2309 112.268C86.5669 112.604 86.7349 113.156 86.7349 113.924V114.86H86.9869C87.9949 113.78 89.1109 112.928 90.3349 112.304C91.5589 111.68 92.7349 111.368 93.8629 111.368C96.6469 111.368 98.0389 113.264 98.0389 117.056V125.66L100.271 126.272C100.271 126.68 100.223 127.016 100.127 127.28C100.055 127.52 99.8989 127.76 99.6589 128H92.2789C92.2789 127.04 92.4709 126.5 92.8549 126.38L94.1149 125.912V117.416C94.1149 115.184 93.2869 114.068 91.6309 114.068C90.7189 114.068 89.8429 114.308 89.0029 114.788C88.1629 115.268 87.4909 115.808 86.9869 116.408V125.804L88.8589 126.272C88.8589 126.992 88.6309 127.568 88.1749 128H80.7949ZM110.431 128.432C109.423 128.432 108.367 128.312 107.263 128.072C106.183 127.832 105.175 127.484 104.239 127.028V104.024L102.583 103.628C102.175 103.532 101.971 103.004 101.971 102.044C103.075 101.876 103.903 101.756 104.455 101.684C105.007 101.612 105.487 101.576 105.895 101.576C107.263 101.576 107.947 102.212 107.947 103.484V114.824H108.199C108.895 113.768 109.795 112.928 110.899 112.304C112.027 111.68 113.167 111.368 114.319 111.368C116.095 111.368 117.523 112.064 118.603 113.456C119.707 114.848 120.259 116.708 120.259 119.036C120.259 120.932 119.863 122.588 119.071 124.004C118.303 125.396 117.187 126.488 115.723 127.28C114.259 128.048 112.495 128.432 110.431 128.432ZM111.223 126.668C112.855 126.668 114.067 126.104 114.859 124.976C115.651 123.848 116.047 122.12 116.047 119.792C116.047 117.776 115.747 116.288 115.147 115.328C114.547 114.344 113.623 113.852 112.375 113.852C111.463 113.852 110.659 114.092 109.963 114.572C109.291 115.052 108.667 115.664 108.091 116.408V125.66C108.595 126.02 109.099 126.284 109.603 126.452C110.131 126.596 110.671 126.668 111.223 126.668ZM126.759 128.432C125.631 128.432 124.695 128.096 123.951 127.424C123.231 126.752 122.871 125.864 122.871 124.76C122.871 122.048 124.647 120.284 128.199 119.468L132.483 118.496V116.372C132.483 115.1 132.279 114.188 131.871 113.636C131.487 113.084 130.887 112.808 130.071 112.808C128.007 112.808 126.963 114.08 126.939 116.624C126.627 116.96 126.135 117.128 125.463 117.128C124.935 117.128 124.515 116.984 124.203 116.696C123.915 116.408 123.771 116.024 123.771 115.544C123.771 114.752 124.071 114.044 124.671 113.42C125.271 112.772 126.087 112.268 127.119 111.908C128.151 111.548 129.327 111.368 130.647 111.368C134.487 111.368 136.407 113.24 136.407 116.984V124.904C136.407 125.744 136.743 126.164 137.415 126.164C137.679 126.164 137.955 126.116 138.243 126.02C138.531 125.9 138.771 125.768 138.963 125.624L139.287 126.848C138.807 127.328 138.219 127.712 137.523 128C136.827 128.288 136.179 128.432 135.579 128.432C134.667 128.432 133.959 128.18 133.455 127.676C132.951 127.148 132.699 126.416 132.699 125.48H132.519C131.799 126.416 130.923 127.148 129.891 127.676C128.883 128.18 127.839 128.432 126.759 128.432ZM128.703 126.164C129.375 126.164 130.047 125.996 130.719 125.66C131.415 125.324 132.015 124.868 132.519 124.292V119.936L129.207 120.728C127.359 121.136 126.435 122.144 126.435 123.752C126.435 124.496 126.639 125.084 127.047 125.516C127.455 125.948 128.007 126.164 128.703 126.164ZM141.404 128C141.404 127.04 141.596 126.5 141.98 126.38L143.636 125.732V114.176L141.98 113.816C141.596 113.72 141.404 113.192 141.404 112.232C142.484 112.064 143.3 111.944 143.852 111.872C144.428 111.8 144.908 111.764 145.292 111.764C146.012 111.764 146.528 111.932 146.84 112.268C147.176 112.604 147.344 113.156 147.344 113.924V114.86H147.596C148.604 113.78 149.72 112.928 150.944 112.304C152.168 111.68 153.344 111.368 154.472 111.368C157.256 111.368 158.648 113.264 158.648 117.056V125.66L160.88 126.272C160.88 126.68 160.832 127.016 160.736 127.28C160.664 127.52 160.508 127.76 160.268 128H152.888C152.888 127.04 153.08 126.5 153.464 126.38L154.724 125.912V117.416C154.724 115.184 153.896 114.068 152.24 114.068C151.328 114.068 150.452 114.308 149.612 114.788C148.772 115.268 148.1 115.808 147.596 116.408V125.804L149.468 126.272C149.468 126.992 149.24 127.568 148.784 128H141.404Z" fill="#846ABC"/>
</svg>
