<svg width="34" height="34" viewBox="0 0 34 34" fill="none" xmlns="http://www.w3.org/2000/svg">
<path d="M34 17C34 26.3888 26.3888 34 17 34C7.61116 34 0 26.3888 0 17C0 7.61116 7.61116 0 17 0C26.3888 0 34 7.61116 34 17Z" fill="#846ABC"/>
<path d="M23.5184 24.2643C22.9212 24.2643 22.2473 23.9828 21.4966 23.4198C20.746 22.8568 19.8758 21.9526 18.8863 20.7071C17.9138 19.4617 16.7878 17.8238 15.5082 15.7936L21.1384 9.13981L19.3981 8.80712C19.3981 8.27823 19.5602 7.86877 19.8844 7.57874H25.2586C25.2586 8.29529 25.0624 8.69623 24.67 8.78153L23.0833 9.21658L17.965 15.2306C18.4939 15.9812 19.0825 16.7575 19.7308 17.5594C20.3791 18.3442 21.0445 19.1205 21.727 19.8882C22.4094 20.6389 23.0748 21.3213 23.7231 21.9355C24.3714 22.5497 24.9771 23.0445 25.5401 23.4198C25.25 23.6757 24.9344 23.8805 24.5932 24.034C24.269 24.1876 23.9108 24.2643 23.5184 24.2643ZM10.7227 23.9828C10.7227 23.3004 10.8591 22.9165 11.1321 22.8312L12.4629 22.4217V9.21658L10.7227 8.80712C10.7227 8.55121 10.7568 8.32942 10.825 8.14175C10.8933 7.95408 11.0298 7.76641 11.2345 7.57874H17.0949C17.0949 8.27823 16.9584 8.6621 16.6855 8.73035L15.3035 9.11422V22.3706L17.0949 22.7544C17.0949 23.0103 17.0608 23.2321 16.9925 23.4198C16.9414 23.6075 16.8219 23.7952 16.6343 23.9828H10.7227Z" fill="#26323E"/>
</svg>
