<svg width="31" height="31" viewBox="0 0 31 31" fill="none" xmlns="http://www.w3.org/2000/svg">
<circle cx="15.5" cy="15.5" r="15.5" fill="#101A24"/>
<path d="M15.1307 7.03491C13.2836 7.03491 11.7862 8.53229 11.7862 10.3794C11.7862 12.2265 13.2836 13.7239 15.1307 13.7239C16.9778 13.7239 18.4752 12.2265 18.4752 10.3794C18.4752 8.53229 16.9778 7.03491 15.1307 7.03491Z" fill="#C4C4C4"/>
<path d="M11.5632 15.5076C9.71613 15.5076 8.21875 17.005 8.21875 18.8521V19.9119C8.21875 20.5837 8.7056 21.1565 9.36861 21.2647C13.1847 21.8878 17.0767 21.8878 20.8928 21.2647C21.5558 21.1565 22.0427 20.5837 22.0427 19.9119V18.8521C22.0427 17.005 20.5453 15.5076 18.6982 15.5076H18.3942C18.2296 15.5076 18.0661 15.5336 17.9097 15.5847L17.1378 15.8368C15.8336 16.2626 14.4278 16.2626 13.1236 15.8368L12.3517 15.5847C12.1953 15.5336 12.0318 15.5076 11.8673 15.5076H11.5632Z" fill="#C4C4C4"/>
</svg>
