<svg width="17" height="17" viewBox="0 0 17 17" fill="none" xmlns="http://www.w3.org/2000/svg">
<g clip-path="url(#clip0)">
<path d="M4.32432 4.59082L2.8515 4.70461C2.44168 4.73628 2.07668 4.95107 1.85004 5.29389L0.15148 7.86286C-0.0204115 8.12284 -0.0477374 8.44819 0.0783338 8.73321C0.204438 9.01822 0.463587 9.21684 0.771543 9.26455L2.12008 9.4734C2.43554 7.79931 3.1907 6.12934 4.32432 4.59082Z" fill="#C4C4C4"/>
<path d="M7.52637 14.8799L7.73525 16.2284C7.78296 16.5364 7.98158 16.7955 8.26656 16.9216C8.38513 16.9741 8.51063 17 8.63551 17C8.81092 17 8.9851 16.9489 9.13694 16.8485L11.706 15.1499C12.0488 14.9233 12.2636 14.5582 12.2952 14.1485L12.409 12.6757C10.8704 13.8093 9.20049 14.5645 7.52637 14.8799Z" fill="#C4C4C4"/>
<path d="M7.01921 13.9452C7.06603 13.9452 7.11311 13.9413 7.16009 13.9335C7.86147 13.8162 8.53748 13.6186 9.18234 13.3601L3.63979 7.8175C3.38121 8.46234 3.18365 9.13835 3.06638 9.83976C3.02016 10.1162 3.11289 10.3979 3.31108 10.5961L6.40373 13.6888C6.56828 13.8533 6.79038 13.9452 7.01921 13.9452Z" fill="#C4C4C4"/>
<path d="M15.6445 7.53715C17.0008 4.91499 17.051 2.14401 16.9801 0.844448C16.9558 0.399165 16.6008 0.0441598 16.1555 0.0198885C15.9439 0.00833392 15.6931 0 15.4105 0C13.9573 0 11.658 0.220102 9.46281 1.35554C7.71826 2.25789 5.43068 4.24479 4.08105 6.85593C4.09699 6.86838 4.11256 6.88159 4.12724 6.89627L10.1038 12.8728C10.1184 12.8875 10.1316 12.903 10.1441 12.9189C12.7552 11.5693 14.7421 9.28169 15.6445 7.53715ZM9.88442 3.59388C10.8553 2.62299 12.4351 2.62289 13.4061 3.59388C13.8764 4.0642 14.1354 4.68957 14.1354 5.35473C14.1354 6.01988 13.8764 6.64525 13.4061 7.11557C12.9207 7.60097 12.2829 7.84371 11.6453 7.84378C11.0075 7.84381 10.3699 7.6011 9.88442 7.11557C9.41407 6.64525 9.15502 6.01988 9.15502 5.35473C9.15502 4.68957 9.41407 4.0642 9.88442 3.59388Z" fill="#C4C4C4"/>
<path d="M10.589 6.41114C11.1715 6.99369 12.1195 6.99372 12.702 6.41114C12.9842 6.12891 13.1396 5.75372 13.1396 5.35462C13.1396 4.95551 12.9842 4.58032 12.702 4.29813C12.4108 4.00684 12.0281 3.86121 11.6455 3.86121C11.2629 3.86121 10.8803 4.00684 10.589 4.29813C10.3068 4.58032 10.1514 4.95551 10.1514 5.35462C10.1514 5.75372 10.3068 6.12895 10.589 6.41114Z" fill="#C4C4C4"/>
<path d="M0.507829 14.0096C0.635296 14.0096 0.762763 13.961 0.859981 13.8637L2.48604 12.2377C2.68054 12.0432 2.68054 11.7278 2.48604 11.5333C2.29157 11.3388 1.9762 11.3388 1.7817 11.5333L0.155644 13.1594C-0.0388604 13.3539 -0.0388604 13.6692 0.155644 13.8637C0.252896 13.961 0.380362 14.0096 0.507829 14.0096Z" fill="#C4C4C4"/>
<path d="M3.97646 13.0234C3.78199 12.8289 3.46662 12.8289 3.27212 13.0234L0.145878 16.1497C-0.048626 16.3442 -0.048626 16.6595 0.145878 16.854C0.24313 16.9513 0.370597 16.9999 0.498063 16.9999C0.62553 16.9999 0.752997 16.9513 0.850216 16.854L3.97642 13.7278C4.17096 13.5333 4.17096 13.2179 3.97646 13.0234Z" fill="#C4C4C4"/>
<path d="M4.76213 14.5137L3.13611 16.1397C2.94161 16.3342 2.94161 16.6496 3.13611 16.8441C3.23336 16.9413 3.36083 16.99 3.48826 16.99C3.6157 16.99 3.7432 16.9414 3.84042 16.8441L5.46647 15.218C5.66098 15.0235 5.66098 14.7082 5.46647 14.5137C5.272 14.3192 4.95664 14.3192 4.76213 14.5137Z" fill="#C4C4C4"/>
</g>
<defs>
<clipPath id="clip0">
<rect width="17" height="17" fill="white"/>
</clipPath>
</defs>
</svg>
