<svg width="16" height="12" viewBox="0 0 16 12" fill="none" xmlns="http://www.w3.org/2000/svg">
<path d="M13.3117 6.00254L8.21744 1.51317C8.07717 1.38985 8 1.22498 8 1.04917C8 0.873268 8.07717 0.708488 8.21744 0.584976L8.66382 0.191805C8.80387 0.0680976 8.99109 0 9.19059 0C9.39009 0 9.57708 0.0680976 9.71724 0.191805L15.7828 5.53678C15.9235 5.66068 16.0006 5.82624 16 6.00224C16.0006 6.17902 15.9236 6.34439 15.7828 6.46839L9.72289 11.8082C9.58273 11.9319 9.39574 12 9.19612 12C8.99662 12 8.80963 11.9319 8.66936 11.8082L8.22308 11.415C7.93269 11.1591 7.93269 10.7425 8.22308 10.4867L13.3117 6.00254Z" fill="#6C71D1"/>
<path d="M5.31171 6.00254L0.217436 1.51317C0.0771653 1.38985 -1.5101e-07 1.22498 -1.5101e-07 1.04917C-1.5101e-07 0.873268 0.0771653 0.708488 0.217436 0.584976L0.663824 0.191805C0.803874 0.0680976 0.991087 0 1.19059 0C1.39009 0 1.57708 0.0680976 1.71724 0.191805L7.78278 5.53678C7.9235 5.66068 8.00055 5.82624 8 6.00224C8.00055 6.17902 7.92361 6.34439 7.78278 6.46839L1.72289 11.8082C1.58273 11.9319 1.39574 12 1.19612 12C0.996623 12 0.809631 11.9319 0.66936 11.8082L0.223083 11.415C-0.0673127 11.1591 -0.0673127 10.7425 0.223083 10.4867L5.31171 6.00254Z" fill="#6C71D1"/>
</svg>
